<svg xmlns="http://www.w3.org/2000/svg" xmlns:xlink="http://www.w3.org/1999/xlink" version="1.1" x="0px" y="0px" viewBox="0 0 600 750" enable-background="new 0 0 600 600" xml:space="preserve"><g><g><path d="M571.954,532.753H400.103c-4.706,0-46.851-0.833-79.165-27.49l-0.774-0.685L24.5,238.618l35.085-39.255l295.216,265.574    c18.078,14.652,45.152,15.1,45.42,15.129h171.732V532.753z"/></g><g><path d="M571.954,443.521H404.839c0,0-20.611,0-40.566-18.942L85.364,173.793c0,0,65.523-88.204,83.684-97.735    c19.382-10.141,32.904-9.59,40.313-7.744c4.4,1.072,11.995,8.86,17.498,20.357c6.873,14.416,15.577,36.188,32.621,53.224    c30.625,30.618,113.966,15.964,113.966,15.964s12.882-3.872,16.709,15.919l51.229,133.333c0,0,8.98,25.257,28.026,31.481    c27.015,8.876,95.293,30.351,104.838,72.315C578.061,427.527,571.954,443.521,571.954,443.521z"/></g></g><text x="0" y="615" fill="#000000" font-size="5px" font-weight="bold" font-family="'Helvetica Neue', Helvetica, Arial-Unicode, Arial, Sans-serif">Created by derano</text><text x="0" y="620" fill="#000000" font-size="5px" font-weight="bold" font-family="'Helvetica Neue', Helvetica, Arial-Unicode, Arial, Sans-serif">from the Noun Project</text></svg>