<svg xmlns:dc="http://purl.org/dc/elements/1.1/" xmlns:cc="http://creativecommons.org/ns#" xmlns:rdf="http://www.w3.org/1999/02/22-rdf-syntax-ns#" xmlns:svg="http://www.w3.org/2000/svg" xmlns="http://www.w3.org/2000/svg" xmlns:sodipodi="http://sodipodi.sourceforge.net/DTD/sodipodi-0.dtd" xmlns:inkscape="http://www.inkscape.org/namespaces/inkscape" version="1.1" x="0px" y="0px" viewBox="0 0 100 125"><g transform="translate(0,-952.36218)"><g transform="translate(14.000001,966.32675)"><path d="m 38.834645,0.03543307 13.322834,0 17.220472,17.99999993 -12.543307,0 z m -2.834646,2.79921253 17.999999,17.9999994 0,12.366141 -17.999999,-17.999999 z m -15.165354,15.2007874 12.366141,0 18,17.999999 -12.366141,0 z m -2.834646,2.799212 18,18 0,12.366141 -18,-18 z m 40.003936,1.204724 13.996063,0 0,49.996062 -49.996062,0 0,-13.996063 15.980315,0 c 1.062992,0 2.019685,-0.956693 2.019685,-2.019685 l 0,-15.980314 15.980314,0 c 1.062992,0 2.019685,-0.956693 2.019685,-2.019685 z m -55.1692894,13.996063 12.3661414,0 17.999999,17.999999 -12.366141,0 z M 0,38.834645 l 17.999999,17.999999 0,12.366141 L 0,51.200786 z" style="" fill="#000000" fill-opacity="1" fill-rule="nonzero" stroke="none"/></g></g><text x="0" y="115" fill="#000000" font-size="5px" font-weight="bold" font-family="'Helvetica Neue', Helvetica, Arial-Unicode, Arial, Sans-serif">Created by Orin zuu</text><text x="0" y="120" fill="#000000" font-size="5px" font-weight="bold" font-family="'Helvetica Neue', Helvetica, Arial-Unicode, Arial, Sans-serif">from the Noun Project</text></svg>